# This file uses centimeters as units for non-parametric coordinates.

mtllib B_Cube3.mtl
g default
v -4.776131 -5.940780 0.040965
v -6.884267 -3.297260 0.040965
v -0.039190 -0.000845 0.040965
v -1.729785 -7.407823 0.040965
v -7.636652 -0.000845 0.040965
v 1.651404 -7.407824 0.040965
v -6.884266 3.295571 0.040965
v 4.697751 -5.940782 0.040965
v -4.776129 5.939091 0.040965
v 6.805888 -3.297262 0.040965
v 1.641173 -0.000845 0.040965
v 1.511747 0.746046 0.040965
v 1.341219 1.730133 0.040965
v -1.729783 7.406132 0.040965
v 1.651406 7.406132 0.040965
v 4.086097 0.139945 0.040965
v 4.578163 0.664204 0.040965
v 4.310447 2.209153 0.040965
v 3.670674 2.537280 0.040965
v 3.273617 -0.000845 0.040965
v 1.688762 -0.275478 0.040965
v 1.273339 2.121856 0.040965
v 1.714585 2.198318 0.040965
v 4.328892 2.102710 0.040965
v 7.558273 -0.000845 0.040965
v 4.697752 5.939089 0.040965
v 6.805888 3.295568 0.040965
vt 0.402580 0.278411
vt 0.359224 0.224044
vt 0.500000 0.150000
vt 0.465231 0.308582
vt 0.343750 0.156250
vt 0.534769 0.308582
vt 0.359224 0.088456
vt 0.597420 0.278411
vt 0.402580 0.034089
vt 0.640776 0.224044
vt 0.534558 0.151382
vt 0.531897 0.136055
vt 0.528390 0.116222
vt 0.465231 0.003918
vt 0.534769 0.003918
vt 0.656250 0.156250
vt 0.535537 0.157121
vt 0.568131 0.152725
vt 0.597420 0.034089
vt 0.536068 0.107086
vt 0.526994 0.108439
vt 0.640776 0.088456
vt 0.584841 0.150525
vt 0.594961 0.140246
vt 0.589834 0.110726
vt 0.589455 0.108581
vt 0.576297 0.101583
vn 0.000000 0.000000 -1.000000
vn 0.000000 0.000000 -1.000000
vn 0.000000 0.000000 -1.000000
vn 0.000000 0.000000 -1.000000
vn 0.000000 0.000000 -1.000000
vn 0.000000 0.000000 -1.000000
vn 0.000000 0.000000 -1.000000
vn 0.000000 0.000000 -1.000000
vn 0.000000 0.000000 -1.000000
vn 0.000000 0.000000 -1.000000
vn 0.000000 0.000000 -1.000000
vn 0.000000 0.000000 -1.000000
vn 0.000000 0.000000 -1.000000
vn 0.000000 0.000000 -1.000000
vn 0.000000 0.000000 -1.000000
vn 0.000000 0.000000 -1.000000
vn 0.000000 0.000000 -1.000000
vn 0.000000 0.000000 -1.000000
vn 0.000000 0.000000 -1.000000
vn 0.000000 0.000000 -1.000000
vn 0.000000 0.000000 -1.000000
vn 0.000000 0.000000 -1.000000
vn 0.000000 0.000000 -1.000000
vn 0.000000 0.000000 -1.000000
vn 0.000000 0.000000 -1.000000
vn 0.000000 0.000000 -1.000000
vn 0.000000 0.000000 -1.000000
s 1
g barrera_C3
usemtl shadingMap2SG
f 1/1/1 2/2/2 3/3/3
f 4/4/4 1/1/1 3/3/3
f 2/2/2 5/5/5 3/3/3
f 6/6/6 4/4/4 3/3/3
f 5/5/5 7/7/7 3/3/3
f 8/8/8 6/6/6 3/3/3
f 7/7/7 9/9/9 3/3/3
f 10/10/10 8/8/8 3/3/3
f 11/11/11 3/3/3 12/12/12
f 12/12/12 3/3/3 13/13/13
f 9/9/9 14/14/14 3/3/3
f 14/14/14 15/15/15 3/3/3
f 25/16/16 10/10/10 3/3/3 11/11/11 21/17/17 20/18/18
f 15/15/15 26/19/19 23/20/20 22/21/21 13/13/13 3/3/3
f 27/22/22 25/16/16 20/18/18 16/23/23 17/24/24 24/25/25
f 26/19/19 27/22/22 24/25/25 18/26/26 19/27/27 23/20/20
