# This file uses centimeters as units for non-parametric coordinates.

mtllib B_Cube1.mtl
g default
v -0.266411 -1.259153 -0.090900
v -1.669805 -7.407823 -0.090900
v -4.716151 -5.940780 -0.090900
v -0.982677 -1.259153 -0.090900
v -1.191806 -0.584800 -0.090900
v -6.824287 -3.297260 -0.090900
v -7.576672 -0.000845 -0.090900
v -1.191806 -0.000845 -0.090900
v 0.307990 -1.259153 -0.090900
v 1.711384 -7.407824 -0.090900
v -6.824286 3.295571 -0.090900
v -1.191806 0.583110 -0.090900
v 1.024257 -1.259153 -0.090900
v 4.757731 -5.940782 -0.090900
v -1.191806 -1.259153 -0.090900
v 1.241256 -0.000845 -0.090900
v 7.618253 -0.000845 -0.090900
v 6.865868 -3.297262 -0.090900
v 1.241256 -0.588591 -0.090900
v -0.378432 1.748263 -0.090900
v -1.669803 7.406132 -0.090900
v 1.711386 7.406132 -0.090900
v 0.420013 1.748263 -0.090900
v 1.241256 0.586899 -0.090900
v 6.865868 3.295568 -0.090900
v -4.716149 5.939091 -0.090900
v -1.057871 1.351754 -0.090900
v -1.191806 1.173909 -0.090900
v -0.759261 1.748263 -0.090900
v 1.241256 -1.259153 -0.090900
v 0.808712 1.748263 -0.090900
v 1.103499 1.356828 -0.090900
v 1.241256 1.173909 -0.090900
v 4.757732 5.939089 -0.090900
vt 0.494093 0.176940
vt 0.465231 0.308582
vt 0.402580 0.278411
vt 0.479363 0.177202
vt 0.475062 0.163117
vt 0.359224 0.224044
vt 0.343750 0.156250
vt 0.475062 0.150998
vt 0.505907 0.176940
vt 0.534769 0.308582
vt 0.359224 0.088456
vt 0.475062 0.139098
vt 0.520637 0.177202
vt 0.597420 0.278411
vt 0.475062 0.177340
vt 0.525100 0.151004
vt 0.656250 0.156250
vt 0.640776 0.224044
vt 0.525100 0.163202
vt 0.491790 0.115504
vt 0.465231 0.003918
vt 0.534769 0.003918
vt 0.508210 0.115504
vt 0.525100 0.139027
vt 0.640776 0.088456
vt 0.402580 0.034089
vt 0.477816 0.123606
vt 0.475062 0.127258
vt 0.525100 0.177346
vt 0.483957 0.115643
vt 0.597420 0.034089
vt 0.522267 0.123507
vt 0.516204 0.115646
vt 0.525100 0.127263
vn 0.000000 0.000000 -1.000000
vn 0.000000 0.000000 -1.000000
vn -0.000000 0.000000 -1.000000
vn -0.000000 0.000000 -1.000000
vn -0.000000 0.000000 -1.000000
vn -0.000000 0.000000 -1.000000
vn 0.000000 0.000000 -1.000000
vn 0.000000 0.000000 -1.000000
vn 0.000000 0.000000 -1.000000
vn 0.000000 0.000000 -1.000000
vn -0.000000 0.000000 -1.000000
vn -0.000000 0.000000 -1.000000
vn -0.000000 0.000000 -1.000000
vn -0.000000 0.000000 -1.000000
vn -0.000000 0.000000 -1.000000
vn 0.000000 0.000000 -1.000000
vn 0.000000 0.000000 -1.000000
vn -0.000000 0.000000 -1.000000
vn -0.000000 0.000000 -1.000000
vn 0.000000 0.000000 -1.000000
vn 0.000000 0.000000 -1.000000
vn 0.000000 0.000000 -1.000000
vn 0.000000 0.000000 -1.000000
vn -0.000000 0.000000 -1.000000
vn -0.000000 0.000000 -1.000000
vn -0.000000 0.000000 -1.000000
vn -0.000000 0.000000 -1.000000
vn -0.000000 0.000000 -1.000000
vn -0.000000 0.000000 -1.000000
vn 0.000000 0.000000 -1.000000
vn 0.000000 0.000000 -1.000000
vn 0.000000 0.000000 -1.000000
vn 0.000000 0.000000 -1.000000
vn -0.000000 0.000000 -1.000000
s 1
g barrera_C1
usemtl shadingMap2SG
f 1/1/1 2/2/2 3/3/3 4/4/4
f 5/5/5 6/6/6 7/7/7 8/8/8
f 9/9/9 10/10/10 2/2/2 1/1/1
f 8/8/8 7/7/7 11/11/11 12/12/12
f 13/13/13 14/14/14 10/10/10 9/9/9
f 3/3/3 6/6/6 5/5/5 15/15/15 4/4/4
f 16/16/16 17/17/17 18/18/18 19/19/19
f 20/20/20 21/21/21 22/22/22 23/23/23
f 24/24/24 25/25/25 17/17/17 16/16/16
f 11/11/11 26/26/26 27/27/27 28/28/28 12/12/12
f 18/18/18 14/14/14 13/13/13 30/29/29 19/19/19
f 26/26/26 21/21/21 20/20/20 29/30/30 27/27/27
f 22/22/22 34/31/31 32/32/32 31/33/33 23/23/23
f 34/31/31 25/25/25 24/24/24 33/34/34 32/32/32
