# This file uses centimeters as units for non-parametric coordinates.

mtllib B_Cube2.mtl
g default
v 1.702024 -7.407824 0.116601
v -1.679165 -7.407823 0.116601
v 0.011430 -0.000845 0.116601
v -7.586032 -0.000845 0.116601
v -6.833646 3.295571 0.116601
v -2.768776 -1.339722 0.116601
v -1.785940 -2.254676 0.116601
v 4.748371 -5.940782 0.116601
v -3.424342 -4.838311 0.116601
v -1.766506 -3.057478 0.116601
v -4.725509 5.939091 0.116601
v -3.666526 -4.612855 0.116601
v -5.205176 -3.180475 0.116601
v -4.725511 -5.940780 0.116601
v -6.833647 -3.297260 0.116601
v -4.078909 -1.970648 0.116601
v 6.856508 -3.297262 0.116601
v -2.839395 -1.273981 0.116601
v -3.547340 -1.399642 0.116601
v -1.691747 -2.342364 0.116601
v -1.679163 7.406132 0.116601
v 7.608893 -0.000845 0.116601
v 1.702026 7.406132 0.116601
v 6.856508 3.295568 0.116601
v 4.748372 5.939089 0.116601
vt 0.534769 0.308582
vt 0.465231 0.308582
vt 0.500000 0.150000
vt 0.343750 0.156250
vt 0.359224 0.088456
vt 0.442822 0.180074
vt 0.463035 0.198724
vt 0.597420 0.278411
vt 0.402580 0.034089
vt 0.402580 0.278411
vt 0.359224 0.224044
vt 0.415878 0.194246
vt 0.392715 0.220507
vt 0.424359 0.249704
vt 0.640776 0.224044
vt 0.465231 0.003918
vt 0.656250 0.156250
vt 0.534769 0.003918
vt 0.640776 0.088456
vt 0.597420 0.034089
vt 0.441370 0.178768
vt 0.426810 0.181958
vt 0.429340 0.254423
vt 0.463435 0.215838
vt 0.464972 0.200560
vn 0.000000 0.000000 -1.000000
vn 0.000000 0.000000 -1.000000
vn 0.000000 0.000000 -1.000000
vn 0.000000 0.000000 -1.000000
vn 0.000000 0.000000 -1.000000
vn 0.000000 0.000000 -1.000000
vn -0.000000 0.000000 -1.000000
vn 0.000000 0.000000 -1.000000
vn 0.000000 0.000000 -1.000000
vn -0.000000 0.000000 -1.000000
vn 0.000000 0.000000 -1.000000
vn 0.000000 0.000000 -1.000000
vn -0.000000 0.000000 -1.000000
vn -0.000000 0.000000 -1.000000
vn 0.000000 0.000000 -1.000000
vn 0.000000 0.000000 -1.000000
vn 0.000000 0.000000 -1.000000
vn 0.000000 0.000000 -1.000000
vn -0.000000 0.000000 -1.000000
vn -0.000000 0.000000 -1.000000
vn 0.000000 0.000000 -1.000000
vn 0.000000 0.000000 -1.000000
vn 0.000000 0.000000 -1.000000
vn 0.000000 0.000000 -1.000000
vn 0.000000 0.000000 -1.000000
s 1
g barrera_C2
usemtl shadingMap2SG
f 1/1/1 2/2/2 3/3/3
f 4/4/4 5/5/5 3/3/3
f 6/6/6 3/3/3 7/7/7
f 8/8/8 1/1/1 3/3/3
f 5/5/5 11/9/9 3/3/3
f 14/10/10 15/11/11 16/12/12 13/13/13 12/14/14
f 17/15/15 8/8/8 3/3/3
f 11/9/9 21/16/16 3/3/3
f 22/17/17 17/15/15 3/3/3
f 21/16/16 23/18/18 3/3/3
f 24/19/19 22/17/17 3/3/3
f 23/18/18 25/20/20 3/3/3
f 25/20/20 24/19/19 3/3/3
f 15/11/11 4/4/4 3/3/3 6/6/6 18/21/21 19/22/22 16/12/12
f 2/2/2 14/10/10 12/14/14 9/23/23 10/24/24 20/25/25 7/7/7 3/3/3
