# This file uses centimeters as units for non-parametric coordinates.

mtllib B_Sphere1.mtl
g default
v -4.708618 -5.920403 0.060758
v -6.816754 -3.276883 0.060758
v -1.107813 -0.527603 0.060758
v -0.758630 -0.965465 0.060758
v -0.757586 -0.965968 0.060758
v -1.662272 -7.387446 0.060758
v -0.253463 -1.208741 0.060758
v -0.252022 -1.208741 0.060758
v -7.569138 0.019533 0.060758
v -1.232981 0.019532 0.060758
v -1.108217 -0.527097 0.060758
v -0.306280 1.142183 0.060758
v -0.653895 1.004542 0.060758
v -0.258885 1.405369 0.060758
v -0.253463 1.380272 0.060758
v -0.133630 1.572126 0.060758
v 1.718918 -7.387447 0.060758
v 0.307230 -1.208741 0.060758
v 0.308526 -1.208117 0.060758
v 0.187398 1.572126 0.060758
v 0.707662 1.004541 0.060758
v 0.360048 1.142183 0.060758
v 0.307231 1.380272 0.060758
v 0.312653 1.405369 0.060758
v -6.816752 3.315948 0.060758
v -1.043686 0.535784 0.060758
v -1.232982 0.019539 0.060758
v 1.286749 0.019532 0.060758
v 7.625787 0.019532 0.060758
v 6.873401 -3.276884 0.060758
v 1.162126 -0.526478 0.060758
v 4.765264 -5.920404 0.060758
v 0.812398 -0.965465 0.060758
v 0.813115 -0.964566 0.060758
v -4.708615 5.959468 0.060758
v -0.707606 0.942360 0.060758
v -1.032543 0.566173 0.060758
v 1.161984 -0.527097 0.060758
v -0.267654 1.316298 0.060758
v 1.286750 0.019539 0.060758
v 1.086311 0.566173 0.060758
v 1.097886 0.534606 0.060758
v 0.322842 1.309900 0.060758
v 0.762871 0.940625 0.060758
v 6.873402 3.315945 0.060758
v 4.765266 5.959467 0.060758
v -1.662269 7.426509 0.060758
v 1.718920 7.426509 0.060758
vt 0.402580 0.278411
vt 0.359224 0.224044
vt 0.476634 0.162290
vt 0.483815 0.171295
vt 0.483837 0.171305
vt 0.465231 0.308582
vt 0.494205 0.176298
vt 0.494234 0.176297
vt 0.343750 0.156250
vt 0.474060 0.151038
vt 0.476626 0.162280
vt 0.534769 0.308582
vt 0.505736 0.176297
vt 0.505763 0.176284
vt 0.359224 0.088456
vt 0.477953 0.140362
vt 0.474060 0.151037
vt 0.525881 0.151035
vt 0.656250 0.156250
vt 0.640776 0.224044
vt 0.523318 0.162265
vt 0.597420 0.278411
vt 0.516125 0.171293
vt 0.516140 0.171274
vt 0.402580 0.034089
vt 0.484865 0.131992
vt 0.478182 0.139745
vt 0.523315 0.162277
vt 0.640776 0.088456
vt 0.525881 0.151035
vt 0.521997 0.140384
vt 0.597420 0.034089
vt 0.521759 0.139743
vt 0.515107 0.132026
vt 0.465231 0.003918
vt 0.493913 0.124425
vt 0.493119 0.127887
vt 0.485969 0.130741
vt 0.534769 0.003918
vt 0.513971 0.130740
vt 0.506822 0.127886
vt 0.506057 0.124551
vt 0.505736 0.123163
vt 0.505848 0.122668
vt 0.503272 0.119379
vt 0.496669 0.119379
vt 0.494093 0.122668
vt 0.494205 0.123163
vn 0.000000 0.000000 -1.000000
vn 0.000000 0.000000 -1.000000
vn 0.000000 0.000000 -1.000000
vn 0.000000 0.000000 -1.000000
vn 0.000000 0.000000 -1.000000
vn 0.000000 0.000000 -1.000000
vn 0.000000 0.000000 -1.000000
vn 0.000000 0.000000 -1.000000
vn 0.000000 0.000000 -1.000000
vn 0.000000 0.000000 -1.000000
vn 0.000000 0.000000 -1.000000
vn 0.000000 0.000000 -1.000000
vn 0.000000 0.000000 -1.000000
vn 0.000000 0.000000 -1.000000
vn 0.000000 0.000000 -1.000000
vn 0.000000 0.000000 -1.000000
vn 0.000000 0.000000 -1.000000
vn -0.000000 0.000000 -1.000000
vn -0.000000 0.000000 -1.000000
vn 0.000000 0.000000 -1.000000
vn 0.000000 0.000000 -1.000000
vn 0.000000 0.000000 -1.000000
vn 0.000000 0.000000 -1.000000
vn 0.000000 0.000000 -1.000000
vn 0.000000 0.000000 -1.000000
vn 0.000000 0.000000 -1.000000
vn 0.000000 0.000000 -1.000000
vn 0.000000 0.000000 -1.000000
vn -0.000000 0.000000 -1.000000
vn -0.000000 0.000000 -1.000000
vn -0.000000 0.000000 -1.000000
vn -0.000000 0.000000 -1.000000
vn -0.000000 0.000000 -1.000000
vn -0.000000 0.000000 -1.000000
vn 0.000000 0.000000 -1.000000
vn 0.000000 0.000000 -1.000000
vn 0.000000 0.000000 -1.000000
vn 0.000000 0.000000 -1.000000
vn 0.000000 0.000000 -1.000000
vn 0.000000 0.000000 -1.000000
vn 0.000000 0.000000 -1.000000
vn 0.000000 0.000000 -1.000000
vn 0.000000 0.000000 -1.000000
vn 0.000000 0.000000 -1.000000
vn 0.000000 0.000000 -1.000000
vn 0.000000 0.000000 -1.000000
vn 0.000000 0.000000 -1.000000
vn 0.000000 0.000000 -1.000000
s 1
g barrera_E1
usemtl volumeFog1SG
f 1/1/1 2/2/2 3/3/3 4/4/4 5/5/5
f 6/6/6 1/1/1 5/5/5 7/7/7 8/8/8
f 2/2/2 9/9/9 10/10/10 11/11/11 3/3/3
f 17/12/12 6/6/6 8/8/8 18/13/13 19/14/14
f 9/9/9 25/15/15 26/16/16 27/17/17 10/10/10
f 28/18/18 29/19/19 30/20/20 31/21/21
f 32/22/22 17/12/12 19/14/14 33/23/23 34/24/24
f 25/15/15 35/25/25 36/26/26 37/27/27 26/16/16
f 30/20/20 32/22/22 34/24/24 38/28/28 31/21/21
f 45/29/29 29/19/19 28/18/18 40/30/30 42/31/31
f 46/32/32 45/29/29 42/31/31 41/33/33 44/34/34
f 35/25/25 47/35/35 39/36/36 12/37/37 13/38/38 36/26/26
f 48/39/39 46/32/32 44/34/34 21/40/40 22/41/41 43/42/42
f 47/35/35 48/39/39 43/42/42 23/43/43 24/44/44 20/45/45 16/46/46 14/47/47 15/48/48 39/36/36
