# This file uses centimeters as units for non-parametric coordinates.

mtllib B_Sphere3.mtl
g default
v -4.734151 -5.947439 0.065120
v -6.842287 -3.303918 0.065120
v 0.002790 -0.007504 0.065120
v -1.687805 -7.414481 0.065120
v -7.594672 -0.007503 0.065120
v 1.693384 -7.414482 0.065120
v 4.739731 -5.947440 0.065120
v 6.847868 -3.303920 0.065120
v 7.600254 -0.007504 0.065120
v -1.687803 7.399474 0.065120
v 1.693386 7.399474 0.065120
v 6.847868 3.288910 0.065120
v 4.739732 5.932431 0.065120
v -1.882101 0.636772 0.065120
v -1.739130 0.484931 0.065120
v -1.879495 0.662315 0.065120
v -3.003844 1.906058 0.065120
v -2.744033 1.385016 0.065120
v -2.319116 0.991334 0.065120
v -1.958384 0.893081 0.065120
v -1.420081 0.520525 0.065120
v -2.940454 2.463156 0.065120
v -1.314087 0.700140 0.065120
v -1.322258 0.724480 0.065120
v -1.296165 0.966959 0.065120
v -2.641626 2.937582 0.065120
v -0.965954 1.142293 0.065120
v -0.638243 1.619939 0.065120
v -0.499646 2.185428 0.065120
v -1.609309 3.297532 0.065120
v -2.166546 3.235367 0.065120
v -0.684250 2.714860 0.065120
v -1.080284 3.111766 0.065120
v -2.587332 1.239834 0.065120
v -1.347848 0.642930 0.065120
v -0.941992 1.177217 0.065120
v -2.444415 3.061196 0.065120
v -6.842286 3.288912 0.065120
v -4.734149 5.932433 0.065120
vt 0.402580 0.278411
vt 0.359224 0.224044
vt 0.500000 0.150000
vt 0.465231 0.308582
vt 0.343750 0.156250
vt 0.534769 0.308582
vt 0.597420 0.278411
vt 0.640776 0.224044
vt 0.656250 0.156250
vt 0.465231 0.003918
vt 0.534769 0.003918
vt 0.640776 0.088456
vt 0.597420 0.034089
vt 0.480570 0.126882
vt 0.472223 0.137856
vt 0.472917 0.136688
vt 0.472749 0.136205
vt 0.473286 0.131329
vt 0.480077 0.127597
vt 0.359224 0.088456
vt 0.402580 0.034089
vt 0.449671 0.090118
vt 0.445615 0.092725
vt 0.439469 0.102430
vt 0.438165 0.113636
vt 0.443509 0.123906
vt 0.446731 0.126712
vt 0.452248 0.131555
vt 0.459666 0.133261
vt 0.461289 0.137899
vt 0.461235 0.138421
vt 0.464176 0.141398
vt 0.470737 0.140410
vt 0.486816 0.118002
vt 0.489667 0.106751
vt 0.485870 0.096333
vt 0.477725 0.088617
vt 0.466845 0.085131
vt 0.455385 0.086566
vn 0.000000 0.000000 -1.000000
vn 0.000000 0.000000 -1.000000
vn 0.000000 0.000000 -1.000000
vn 0.000000 0.000000 -1.000000
vn -0.000000 0.000000 -1.000000
vn 0.000000 0.000000 -1.000000
vn 0.000000 0.000000 -1.000000
vn 0.000000 0.000000 -1.000000
vn 0.000000 0.000000 -1.000000
vn 0.000000 0.000000 -1.000000
vn 0.000000 0.000000 -1.000000
vn -0.000000 0.000000 -1.000000
vn -0.000000 0.000000 -1.000000
vn 0.000000 0.000000 -1.000000
vn 0.000000 0.000000 -1.000000
vn 0.000000 0.000000 -1.000000
vn 0.000000 0.000000 -1.000000
vn 0.000000 0.000000 -1.000000
vn 0.000000 0.000000 -1.000000
vn 0.000000 0.000000 -1.000000
vn 0.000000 0.000000 -1.000000
vn 0.000000 0.000000 -1.000000
vn 0.000000 0.000000 -1.000000
vn 0.000000 0.000000 -1.000000
vn 0.000000 0.000000 -1.000000
vn 0.000000 0.000000 -1.000000
vn 0.000000 0.000000 -1.000000
vn -0.000000 0.000000 -1.000000
vn -0.000000 0.000000 -1.000000
vn -0.000000 0.000000 -1.000000
vn -0.000000 0.000000 -1.000000
vn -0.000000 0.000000 -1.000000
vn -0.000000 0.000000 -1.000000
vn 0.000000 0.000000 -1.000000
vn 0.000000 0.000000 -1.000000
vn 0.000000 0.000000 -1.000000
vn 0.000000 0.000000 -1.000000
vn 0.000000 0.000000 -1.000000
vn 0.000000 0.000000 -1.000000
s 1
g barrera_E3
usemtl shadingMap1SG
f 1/1/1 2/2/2 3/3/3
f 4/4/4 1/1/1 3/3/3
f 2/2/2 5/5/5 3/3/3
f 6/6/6 4/4/4 3/3/3
f 7/7/7 6/6/6 3/3/3
f 8/8/8 7/7/7 3/3/3
f 9/9/9 8/8/8 3/3/3
f 10/10/10 11/11/11 3/3/3
f 12/12/12 9/9/9 3/3/3
f 11/11/11 13/13/13 3/3/3
f 13/13/13 12/12/12 3/3/3
f 36/14/14 3/3/3 35/15/15 23/16/16 24/17/17 25/18/18 27/19/19
f 38/20/20 39/21/21 37/22/22 26/23/23 22/24/24 17/25/25 18/26/26 34/27/27
f 5/5/5 38/20/20 34/27/27 19/28/28 20/29/29 16/30/30 14/31/31 15/32/32 21/33/33 35/15/15 3/3/3
f 39/21/21 10/10/10 3/3/3 36/14/14 28/34/34 29/35/35 32/36/36 33/37/37 30/38/38 31/39/39 37/22/22
