# This file uses centimeters as units for non-parametric coordinates.

mtllib B_Sphere2.mtl
g default
v -4.729440 -5.953293 0.122460
v -6.837576 -3.309773 0.122460
v 0.007502 -0.013358 0.122460
v -1.683094 -7.420336 0.122460
v -7.589960 -0.013357 0.122460
v 1.698095 -7.420337 0.122460
v -6.837574 3.283058 0.122460
v -4.729437 5.926578 0.122460
v -1.683091 7.393619 0.122460
v 1.698098 7.393619 0.122460
v 6.852580 3.283055 0.122460
v 7.604965 -0.013358 0.122460
v 4.744443 5.926577 0.122460
v 1.546998 -3.136349 0.122460
v 1.992017 -3.477427 0.122460
v 1.352281 -2.587648 0.122460
v 2.540954 -3.591641 0.122460
v 1.363849 -2.008505 0.122460
v 1.432174 -1.463664 0.122460
v 1.543526 -1.680636 0.122460
v 1.411978 -1.447809 0.122460
v 3.085085 -3.456368 0.122460
v 3.516638 -3.098404 0.122460
v 1.401921 -1.239494 0.122460
v 1.649009 -1.034539 0.122460
v 1.851877 -1.082921 0.122460
v 1.863726 -1.105699 0.122460
v 2.056383 -1.255231 0.122460
v 3.750139 -2.588645 0.122460
v 3.739339 -2.028055 0.122460
v 2.983114 -1.234901 0.122460
v 2.411809 -1.139242 0.122460
v 3.486378 -1.527667 0.122460
v 2.808120 -3.525223 0.122460
v 1.459454 -1.834049 0.122460
v 2.372238 -1.152156 0.122460
v 3.593979 -1.740515 0.122460
v 6.852579 -3.309774 0.122460
v 4.744442 -5.953294 0.122460
vt 0.402580 0.278411
vt 0.359224 0.224044
vt 0.500000 0.150000
vt 0.465231 0.308582
vt 0.343750 0.156250
vt 0.534769 0.308582
vt 0.359224 0.088456
vt 0.402580 0.034089
vt 0.465231 0.003918
vt 0.534769 0.003918
vt 0.640776 0.088456
vt 0.656250 0.156250
vt 0.597420 0.034089
vt 0.640776 0.224044
vt 0.597420 0.278411
vt 0.557598 0.225920
vt 0.563294 0.224651
vt 0.572169 0.217385
vt 0.576971 0.206787
vt 0.576749 0.194956
vt 0.573760 0.188796
vt 0.571547 0.184290
vt 0.561197 0.177800
vt 0.549447 0.175344
vt 0.548633 0.175580
vt 0.529861 0.189360
vt 0.527895 0.193046
vt 0.527657 0.205392
vt 0.531661 0.217165
vt 0.540814 0.224602
vt 0.552103 0.227239
vt 0.542138 0.177545
vt 0.538175 0.174264
vt 0.537932 0.173776
vt 0.533759 0.172622
vt 0.528678 0.176782
vt 0.528885 0.181182
vt 0.529300 0.181530
vt 0.531590 0.186180
vn 0.000000 0.000000 -1.000000
vn 0.000000 0.000000 -1.000000
vn 0.000000 0.000000 -1.000000
vn 0.000000 0.000000 -1.000000
vn 0.000000 0.000000 -1.000000
vn 0.000000 0.000000 -1.000000
vn 0.000000 0.000000 -1.000000
vn 0.000000 0.000000 -1.000000
vn 0.000000 0.000000 -1.000000
vn 0.000000 0.000000 -1.000000
vn -0.000000 0.000000 -1.000000
vn 0.000000 0.000000 -1.000000
vn -0.000000 0.000000 -1.000000
vn 0.000000 0.000000 -1.000000
vn 0.000000 0.000000 -1.000000
vn 0.000000 0.000000 -1.000000
vn 0.000000 0.000000 -1.000000
vn 0.000000 0.000000 -1.000000
vn 0.000000 0.000000 -1.000000
vn 0.000000 0.000000 -1.000000
vn 0.000000 0.000000 -1.000000
vn 0.000000 0.000000 -1.000000
vn 0.000000 0.000000 -1.000000
vn 0.000000 0.000000 -1.000000
vn -0.000000 0.000000 -1.000000
vn 0.000000 0.000000 -1.000000
vn 0.000000 0.000000 -1.000000
vn 0.000000 0.000000 -1.000000
vn 0.000000 0.000000 -1.000000
vn 0.000000 0.000000 -1.000000
vn 0.000000 0.000000 -1.000000
vn -0.000000 0.000000 -1.000000
vn -0.000000 0.000000 -1.000000
vn -0.000000 0.000000 -1.000000
vn -0.000000 0.000000 -1.000000
vn -0.000000 0.000000 -1.000000
vn -0.000000 0.000000 -1.000000
vn -0.000000 0.000000 -1.000000
vn -0.000000 0.000000 -1.000000
s 1
g barrera_E2
usemtl shadingMap1SG
f 1/1/1 2/2/2 3/3/3
f 4/4/4 1/1/1 3/3/3
f 2/2/2 5/5/5 3/3/3
f 6/6/6 4/4/4 3/3/3
f 5/5/5 7/7/7 3/3/3
f 7/7/7 8/8/8 3/3/3
f 8/8/8 9/9/9 3/3/3
f 9/9/9 10/10/10 3/3/3
f 11/11/11 12/12/12 3/3/3
f 10/10/10 13/13/13 3/3/3
f 13/13/13 11/11/11 3/3/3
f 38/14/14 39/15/15 34/16/16 22/17/17 23/18/18 29/19/19 30/20/20 37/21/21
f 12/12/12 38/14/14 37/21/21 33/22/22 31/23/23 32/24/24 36/25/25 3/3/3
f 39/15/15 6/6/6 3/3/3 35/26/26 18/27/27 16/28/28 14/29/29 15/30/30 17/31/31 34/16/16
f 35/26/26 3/3/3 36/25/25 28/32/32 27/33/33 26/34/34 25/35/35 24/36/36 21/37/37 19/38/38 20/39/39
