# This file uses centimeters as units for non-parametric coordinates.

mtllib B_Triangle3.mtl
g default
v 1.708790 -7.392159 0.113042
v -1.672399 -7.392158 0.113042
v 0.018197 0.014819 0.113042
v -7.579266 0.014820 0.113042
v -6.826880 3.311236 0.113042
v -5.320374 -2.137917 0.113042
v -5.011820 -2.404448 0.113042
v -5.416992 -1.778318 0.113042
v -4.492670 -2.708171 0.113042
v -3.737514 -3.615581 0.113042
v -4.796194 -2.427791 0.113042
v 4.755137 -5.925117 0.113042
v -2.350757 -4.694850 0.113042
v -2.041259 -4.960283 0.113042
v -2.405943 -4.485103 0.113042
v -2.728387 -4.226706 0.113042
v -5.125961 -1.440188 0.113042
v -1.671282 -5.002286 0.113042
v -4.778402 -1.427661 0.113042
v -1.380250 -4.664157 0.113042
v -4.422063 -2.055328 0.113042
v -4.435361 -1.725241 0.113042
v -4.718743 5.954756 0.113042
v -3.665748 -2.365979 0.113042
v -4.235603 -2.189682 0.113042
v -2.093332 -4.059688 0.113042
v -2.253949 -3.895310 0.113042
v -2.513123 -3.358054 0.113042
v -1.764945 -4.023693 0.113042
v -1.419608 -4.318607 0.113042
v -3.176848 -2.353865 0.113042
v 6.863274 -3.281597 0.113042
v -2.718121 -2.000661 0.113042
v -2.573934 -2.872799 0.113042
v -2.292963 -2.366598 0.113042
v -2.620757 -1.731194 0.113042
v -1.672396 7.421797 0.113042
v -2.040996 -2.230199 0.113042
v -2.455549 -1.521336 0.113042
v -1.858074 -2.035589 0.113042
v -2.144080 -1.470523 0.113042
v -1.854200 -1.720027 0.113042
v 7.615660 0.014819 0.113042
v -5.006632 -2.405010 0.113042
v -3.157209 -3.967012 0.113042
v 1.708793 7.421797 0.113042
v 6.863275 3.311233 0.113042
v -4.365357 -2.096187 0.113042
v 4.755138 5.954754 0.113042
v -2.534642 -3.186338 0.113042
v -4.718745 -5.925115 0.113042
v -6.826881 -3.281595 0.113042
vt 0.534769 0.308582
vt 0.465231 0.308582
vt 0.500000 0.150000
vt 0.343750 0.156250
vt 0.359224 0.088456
vt 0.597420 0.278411
vt 0.402580 0.034089
vt 0.640776 0.224044
vt 0.465231 0.003918
vt 0.656250 0.156250
vt 0.534769 0.003918
vt 0.640776 0.088456
vt 0.597420 0.034089
vt 0.402580 0.278411
vt 0.359224 0.224044
vt 0.396659 0.204354
vt 0.400987 0.204696
vt 0.407229 0.210410
vt 0.422760 0.229051
vt 0.434694 0.236080
vt 0.409848 0.197418
vt 0.408681 0.196616
vt 0.408408 0.189777
vt 0.401353 0.183883
vt 0.394205 0.184429
vt 0.388219 0.191686
vt 0.390207 0.199069
vt 0.396552 0.204347
vt 0.443514 0.241462
vt 0.450145 0.246854
vt 0.451280 0.251307
vt 0.457645 0.256855
vt 0.465254 0.257615
vt 0.471239 0.250297
vt 0.470430 0.242942
vt 0.463328 0.236779
vt 0.456574 0.237667
vt 0.453271 0.234221
vt 0.447941 0.222858
vt 0.447498 0.219204
vt 0.446690 0.212616
vt 0.452469 0.201754
vt 0.457650 0.198711
vt 0.461412 0.194485
vt 0.461492 0.187827
vt 0.455530 0.182756
vt 0.449125 0.184033
vt 0.445727 0.188568
vt 0.443725 0.194316
vt 0.434290 0.202069
vt 0.424236 0.202647
vt 0.412516 0.199304
vn 0.000000 0.000000 -1.000000
vn 0.000000 0.000000 -1.000000
vn 0.000000 0.000000 -1.000000
vn 0.000000 0.000000 -1.000000
vn 0.000000 0.000000 -1.000000
vn 0.000000 0.000000 -1.000000
vn 0.000000 0.000000 -1.000000
vn 0.000000 0.000000 -1.000000
vn 0.000000 0.000000 -1.000000
vn 0.000000 0.000000 -1.000000
vn 0.000000 0.000000 -1.000000
vn -0.000000 0.000000 -1.000000
vn -0.000000 0.000000 -1.000000
vn 0.000000 0.000000 -1.000000
vn 0.000000 0.000000 -1.000000
vn 0.000000 0.000000 -1.000000
vn 0.000000 0.000000 -1.000000
vn 0.000000 0.000000 -1.000000
vn 0.000000 0.000000 -1.000000
vn 0.000000 0.000000 -1.000000
vn 0.000000 0.000000 -1.000000
vn 0.000000 0.000000 -1.000000
vn 0.000000 0.000000 -1.000000
vn 0.000000 0.000000 -1.000000
vn 0.000000 0.000000 -1.000000
vn 0.000000 0.000000 -1.000000
vn 0.000000 0.000000 -1.000000
vn 0.000000 0.000000 -1.000000
vn 0.000000 0.000000 -1.000000
vn 0.000000 0.000000 -1.000000
vn 0.000000 0.000000 -1.000000
vn 0.000000 0.000000 -1.000000
vn 0.000000 0.000000 -1.000000
vn 0.000000 0.000000 -1.000000
vn 0.000000 0.000000 -1.000000
vn 0.000000 0.000000 -1.000000
vn 0.000000 0.000000 -1.000000
vn 0.000000 0.000000 -1.000000
vn 0.000000 0.000000 -1.000000
vn 0.000000 0.000000 -1.000000
vn 0.000000 0.000000 -1.000000
vn 0.000000 0.000000 -1.000000
vn 0.000000 0.000000 -1.000000
vn 0.000000 0.000000 -1.000000
vn 0.000000 0.000000 -1.000000
vn 0.000000 0.000000 -1.000000
vn 0.000000 0.000000 -1.000000
vn 0.000000 0.000000 -1.000000
vn 0.000000 0.000000 -1.000000
vn 0.000000 0.000000 -1.000000
vn 0.000000 0.000000 -1.000000
vn 0.000000 0.000000 -1.000000
s 1
g barrera_T3
usemtl surfaceShader1SG
f 1/1/1 2/2/2 3/3/3
f 4/4/4 5/5/5 3/3/3
f 12/6/6 1/1/1 3/3/3
f 5/5/5 23/7/7 3/3/3
f 32/8/8 12/6/6 3/3/3
f 23/7/7 37/9/9 3/3/3
f 43/10/10 32/8/8 3/3/3
f 37/9/9 46/11/11 3/3/3
f 47/12/12 43/10/10 3/3/3
f 46/11/11 49/13/13 3/3/3
f 49/13/13 47/12/12 3/3/3
f 51/14/14 52/15/15 44/16/16 11/17/17 9/18/18 10/19/19 45/20/20
f 52/15/15 4/4/4 3/3/3 48/21/21 21/22/22 22/23/23 19/24/24 17/25/25 8/26/26 6/27/27 7/28/28 44/16/16
f 2/2/2 51/14/14 45/20/20 16/29/29 15/30/30 13/31/31 14/32/32 18/33/33 20/34/34 30/35/35 29/36/36 26/37/37 27/38/38 28/39/39 50/40/40 3/3/3
f 48/21/21 3/3/3 50/40/40 34/41/41 35/42/42 38/43/43 40/44/44 42/45/45 41/46/46 39/47/47 36/48/48 33/49/49 31/50/50 24/51/51 25/52/52
