# This file uses centimeters as units for non-parametric coordinates.

mtllib B_Triangle2.mtl
g default
v -4.751499 -5.925115 -0.023753
v -6.859635 -3.281595 -0.023753
v -0.014557 0.014819 -0.023753
v -1.705153 -7.392158 -0.023753
v -7.612020 0.014820 -0.023753
v 1.676036 -7.392159 -0.023753
v -6.859634 3.311236 -0.023753
v 4.722383 -5.925117 -0.023753
v -4.751496 5.954756 -0.023753
v 6.830520 -3.281597 -0.023753
v -1.705150 7.421797 -0.023753
v 7.582905 0.014819 -0.023753
v 6.830521 3.311233 -0.023753
v 0.036425 1.890442 -0.023753
v 0.224547 1.485916 -0.023753
v 0.168260 2.212269 -0.023753
v 0.592004 1.425733 -0.023753
v 0.962017 1.597007 -0.023753
v 1.072158 1.783845 -0.023753
v 0.887004 2.278235 -0.023753
v 0.580778 2.402168 -0.023753
v 1.452716 1.944828 -0.023753
v 1.086267 2.392746 -0.023753
v 1.481764 2.839284 -0.023753
v 1.672233 3.289720 -0.023753
v 1.539493 3.853247 -0.023753
v 1.334109 4.053021 -0.023753
v 1.210997 4.290038 -0.023753
v 2.590712 2.258862 -0.023753
v 3.563438 2.926407 -0.023753
v 1.293076 4.594763 -0.023753
v 2.393536 3.625158 -0.023753
v 2.048136 4.089789 -0.023753
v 1.639878 4.756043 -0.023753
v 2.027712 4.375577 -0.023753
v 1.925794 4.622450 -0.023753
v 3.457043 3.495262 -0.023753
v 2.860722 3.480561 -0.023753
v 3.931764 3.113689 -0.023753
v 3.673010 3.573851 -0.023753
v 4.145613 3.077520 -0.023753
v 3.775563 3.887884 -0.023753
v 4.515015 3.250106 -0.023753
v 4.186596 4.080973 -0.023753
v 4.705774 3.569885 -0.023753
v 4.517651 3.974410 -0.023753
v 0.317728 1.470655 -0.023753
v 0.524418 2.376223 -0.023753
v 1.544849 1.970253 -0.023753
v 2.771341 3.508225 -0.023753
v 1.676039 7.421797 -0.023753
v 4.722384 5.954754 -0.023753
vt 0.402580 0.278411
vt 0.359224 0.224044
vt 0.500000 0.150000
vt 0.465231 0.308582
vt 0.343750 0.156250
vt 0.534769 0.308582
vt 0.359224 0.088456
vt 0.597420 0.278411
vt 0.402580 0.034089
vt 0.640776 0.224044
vt 0.465231 0.003918
vt 0.656250 0.156250
vt 0.640776 0.088456
vt 0.532071 0.111842
vt 0.506834 0.121288
vt 0.512475 0.122278
vt 0.520084 0.119021
vt 0.522349 0.115361
vt 0.530176 0.112312
vt 0.534769 0.003918
vt 0.511085 0.103428
vt 0.503760 0.106661
vt 0.501049 0.113008
vt 0.504917 0.120987
vt 0.597420 0.034089
vt 0.553580 0.106748
vt 0.573585 0.094012
vt 0.581160 0.090502
vt 0.585558 0.091368
vt 0.593156 0.088153
vt 0.597079 0.081871
vt 0.593210 0.073640
vt 0.586401 0.071286
vt 0.577948 0.074884
vt 0.575839 0.081110
vt 0.571397 0.082542
vt 0.559133 0.082443
vt 0.557295 0.081830
vt 0.549525 0.079376
vt 0.542421 0.070047
vt 0.542001 0.064379
vt 0.539905 0.059452
vt 0.534025 0.056702
vt 0.526893 0.059769
vt 0.525205 0.065774
vt 0.527737 0.070514
vt 0.531961 0.074546
vt 0.534691 0.085755
vt 0.530773 0.094607
vt 0.522640 0.103306
vt 0.518542 0.105501
vt 0.512244 0.102935
vn 0.000000 0.000000 -1.000000
vn 0.000000 0.000000 -1.000000
vn 0.000000 0.000000 -1.000000
vn 0.000000 0.000000 -1.000000
vn 0.000000 0.000000 -1.000000
vn 0.000000 0.000000 -1.000000
vn 0.000000 0.000000 -1.000000
vn 0.000000 0.000000 -1.000000
vn 0.000000 0.000000 -1.000000
vn 0.000000 0.000000 -1.000000
vn 0.000000 0.000000 -1.000000
vn 0.000000 0.000000 -1.000000
vn -0.000000 0.000000 -1.000000
vn -0.000000 0.000000 -1.000000
vn -0.000000 0.000000 -1.000000
vn -0.000000 0.000000 -1.000000
vn -0.000000 0.000000 -1.000000
vn -0.000000 0.000000 -1.000000
vn -0.000000 0.000000 -1.000000
vn 0.000000 0.000000 -1.000000
vn 0.000000 0.000000 -1.000000
vn 0.000000 0.000000 -1.000000
vn 0.000000 0.000000 -1.000000
vn 0.000000 0.000000 -1.000000
vn -0.000000 0.000000 -1.000000
vn -0.000000 0.000000 -1.000000
vn -0.000000 0.000000 -1.000000
vn -0.000000 0.000000 -1.000000
vn -0.000000 0.000000 -1.000000
vn -0.000000 0.000000 -1.000000
vn -0.000000 0.000000 -1.000000
vn -0.000000 0.000000 -1.000000
vn -0.000000 0.000000 -1.000000
vn -0.000000 0.000000 -1.000000
vn -0.000000 0.000000 -1.000000
vn -0.000000 0.000000 -1.000000
vn -0.000000 0.000000 -1.000000
vn 0.000000 0.000000 -1.000000
vn 0.000000 0.000000 -1.000000
vn 0.000000 0.000000 -1.000000
vn 0.000000 0.000000 -1.000000
vn 0.000000 0.000000 -1.000000
vn 0.000000 0.000000 -1.000000
vn 0.000000 0.000000 -1.000000
vn 0.000000 0.000000 -1.000000
vn 0.000000 0.000000 -1.000000
vn 0.000000 0.000000 -1.000000
vn 0.000000 0.000000 -1.000000
vn 0.000000 0.000000 -1.000000
vn 0.000000 0.000000 -1.000000
vn 0.000000 0.000000 -1.000000
vn 0.000000 0.000000 -1.000000
s 1
g barrera_T2
usemtl surfaceShader1SG
f 1/1/1 2/2/2 3/3/3
f 4/4/4 1/1/1 3/3/3
f 2/2/2 5/5/5 3/3/3
f 6/6/6 4/4/4 3/3/3
f 5/5/5 7/7/7 3/3/3
f 8/8/8 6/6/6 3/3/3
f 7/7/7 9/9/9 3/3/3
f 10/10/10 8/8/8 3/3/3
f 9/9/9 11/11/11 3/3/3
f 12/12/12 10/10/10 3/3/3
f 13/13/13 12/12/12 3/3/3
f 49/14/14 3/3/3 47/15/15 17/16/16 18/17/17 19/18/18 22/19/19
f 11/11/11 51/20/20 48/21/21 16/22/22 14/23/23 15/24/24 47/15/15 3/3/3
f 52/25/25 13/13/13 3/3/3 49/14/14 29/26/26 30/27/27 39/28/28 41/29/29 43/30/30 45/31/31 46/32/32 44/33/33 42/34/34 40/35/35 37/36/36 38/37/37 50/38/38
f 51/20/20 52/25/25 50/38/38 32/39/39 33/40/40 35/41/41 36/42/42 34/43/43 31/44/44 28/45/45 27/46/46 26/47/47 25/48/48 24/49/49 23/50/50 20/51/51 21/52/52 48/21/21
