# This file uses centimeters as units for non-parametric coordinates.

mtllib B_Triangle1.mtl
g default
v -0.201325 -0.773623 0.245066
v -1.711963 -7.392158 0.245066
v -4.758309 -5.925115 0.245066
v -0.597221 -0.707277 0.245066
v -2.496859 -0.506211 0.245066
v -2.189046 -0.715730 0.245066
v -2.496859 -0.060082 0.245066
v -1.781316 -0.716454 0.245066
v -1.602661 -0.593483 0.245066
v -1.787486 0.174383 0.245066
v -2.241611 0.176142 0.245066
v 0.553484 -0.706022 0.245066
v 4.715572 -5.925117 0.245066
v 1.669226 -7.392159 0.245066
v 0.158286 -0.772297 0.245066
v -1.333108 -0.047314 0.245066
v -1.562077 -0.067122 0.245066
v -1.638557 0.014819 0.245066
v -1.190403 0.014819 0.245066
v -0.408279 1.353625 0.245066
v -0.306288 1.085875 0.245066
v -6.866445 -3.281595 0.245066
v -1.306143 -0.603896 0.245066
v -1.189709 -0.607984 0.245066
v 1.551040 -0.593483 0.245066
v 1.729695 -0.716454 0.245066
v -0.419966 1.620453 0.245066
v 0.371933 0.518925 0.245066
v 0.254666 1.085875 0.245066
v 2.137425 -0.715730 0.245066
v 1.510455 -0.067122 0.245066
v 1.281488 -0.047314 0.245066
v 0.356658 1.353625 0.245066
v 2.445237 -0.506211 0.245066
v 1.138783 0.014819 0.245066
v 1.586936 0.014819 0.245066
v 0.165424 1.862151 0.245066
v -0.217045 1.862151 0.245066
v 0.368344 1.620453 0.245066
v 2.189989 0.176142 0.245066
v 1.735865 0.174383 0.245066
v 2.445237 -0.060082 0.245066
v -0.025415 -0.803103 0.245066
v -2.415925 0.014819 0.245066
v 0.376992 0.514347 0.245066
v 4.715574 5.954754 0.245066
v 6.823711 3.311233 0.245066
v 0.598932 0.313540 0.245066
v -0.786198 0.190811 0.245066
v -0.647466 0.316333 0.245066
v -0.423554 0.518925 0.245066
v -6.866444 3.311236 0.245066
v -4.758307 5.954756 0.245066
v -0.423517 0.519100 0.245066
v 1.262803 -0.603605 0.245066
v 1.138089 -0.607984 0.245066
v 6.823710 -3.281597 0.245066
v 0.734578 0.190811 0.245066
v -0.394709 1.650536 0.245066
v 0.350075 1.642214 0.245066
v 2.364304 0.014819 0.245066
v -1.711961 7.421797 0.245066
v 1.669228 7.421797 0.245066
v -7.618830 0.014820 0.245066
v 7.576095 0.014819 0.245066
vt 0.496299 0.166880
vt 0.465231 0.308582
vt 0.402580 0.278411
vt 0.488157 0.165610
vt 0.511822 0.165583
vt 0.597420 0.278411
vt 0.534769 0.308582
vt 0.503695 0.166852
vt 0.466741 0.151330
vt 0.475958 0.150962
vt 0.473023 0.152369
vt 0.468314 0.152968
vt 0.359224 0.224044
vt 0.473577 0.163898
vt 0.475972 0.163907
vt 0.523860 0.150954
vt 0.533077 0.151323
vt 0.531504 0.152961
vt 0.526795 0.152361
vt 0.499917 0.167512
vt 0.508193 0.140252
vt 0.597420 0.034089
vt 0.640776 0.088456
vt 0.512757 0.144423
vt 0.359224 0.088456
vt 0.402580 0.034089
vt 0.491729 0.140160
vt 0.491729 0.140163
vt 0.487124 0.144371
vt 0.640776 0.224044
vt 0.523845 0.163901
vt 0.526410 0.163891
vt 0.465231 0.003918
vt 0.534769 0.003918
vt 0.507639 0.117904
vt 0.503842 0.113566
vt 0.495976 0.113566
vt 0.492322 0.117740
vt 0.491802 0.118345
vt 0.492043 0.123626
vt 0.494140 0.128891
vt 0.343750 0.156250
vt 0.450753 0.151970
vt 0.449089 0.153591
vt 0.449089 0.162850
vt 0.455419 0.166945
vt 0.463805 0.166625
vt 0.467479 0.163925
vt 0.484270 0.147043
vt 0.463678 0.148201
vt 0.454338 0.148539
vt 0.508089 0.140160
vt 0.505677 0.128888
vt 0.507774 0.123622
vt 0.508015 0.118342
vt 0.656250 0.156250
vt 0.532338 0.163918
vt 0.536012 0.166617
vt 0.544398 0.166938
vt 0.550728 0.162843
vt 0.550728 0.153584
vt 0.549064 0.151963
vt 0.545479 0.148532
vt 0.536139 0.148194
vt 0.515547 0.147035
vn 0.000000 0.000000 -1.000000
vn 0.000000 0.000000 -1.000000
vn 0.000000 0.000000 -1.000000
vn 0.000000 0.000000 -1.000000
vn -0.000000 0.000000 -1.000000
vn -0.000000 0.000000 -1.000000
vn -0.000000 0.000000 -1.000000
vn -0.000000 0.000000 -1.000000
vn 0.000000 0.000000 -1.000000
vn 0.000000 0.000000 -1.000000
vn 0.000000 0.000000 -1.000000
vn 0.000000 0.000000 -1.000000
vn 0.000000 0.000000 -1.000000
vn 0.000000 0.000000 -1.000000
vn 0.000000 0.000000 -1.000000
vn 0.000000 0.000000 -1.000000
vn 0.000000 0.000000 -1.000000
vn 0.000000 0.000000 -1.000000
vn 0.000000 0.000000 -1.000000
vn 0.000000 0.000000 -1.000000
vn 0.000000 0.000000 -1.000000
vn 0.000000 0.000000 -1.000000
vn 0.000000 0.000000 -1.000000
vn 0.000000 0.000000 -1.000000
vn -0.000000 0.000000 -1.000000
vn 0.000000 0.000000 -1.000000
vn -0.000000 0.000000 -1.000000
vn -0.000000 0.000000 -1.000000
vn -0.000000 0.000000 -1.000000
vn -0.000000 0.000000 -1.000000
vn -0.000000 0.000000 -1.000000
vn -0.000000 0.000000 -1.000000
vn 0.000000 0.000000 -1.000000
vn 0.000000 0.000000 -1.000000
vn 0.000000 0.000000 -1.000000
vn 0.000000 0.000000 -1.000000
vn 0.000000 0.000000 -1.000000
vn 0.000000 0.000000 -1.000000
vn 0.000000 0.000000 -1.000000
vn 0.000000 0.000000 -1.000000
vn 0.000000 0.000000 -1.000000
vn 0.000000 0.000000 -1.000000
vn 0.000000 0.000000 -1.000000
vn 0.000000 0.000000 -1.000000
vn 0.000000 0.000000 -1.000000
vn 0.000000 0.000000 -1.000000
vn 0.000000 0.000000 -1.000000
vn 0.000000 0.000000 -1.000000
vn 0.000000 0.000000 -1.000000
vn 0.000000 0.000000 -1.000000
vn 0.000000 0.000000 -1.000000
vn 0.000000 0.000000 -1.000000
vn 0.000000 0.000000 -1.000000
vn 0.000000 0.000000 -1.000000
vn 0.000000 0.000000 -1.000000
vn 0.000000 0.000000 -1.000000
vn 0.000000 0.000000 -1.000000
vn 0.000000 0.000000 -1.000000
vn 0.000000 0.000000 -1.000000
vn 0.000000 0.000000 -1.000000
vn 0.000000 0.000000 -1.000000
vn 0.000000 0.000000 -1.000000
vn 0.000000 0.000000 -1.000000
vn 0.000000 0.000000 -1.000000
vn 0.000000 0.000000 -1.000000
s 1
g barrera_T1
usemtl surfaceShader1SG
f 1/1/1 2/2/2 3/3/3 4/4/4
f 12/5/5 13/6/6 14/7/7 15/8/8
f 18/9/9 19/10/10 16/11/11 17/12/12
f 3/3/3 22/13/13 23/14/14 24/15/15 4/4/4
f 35/16/16 36/17/17 31/18/18 32/19/19
f 14/7/7 2/2/2 1/1/1 43/20/20 15/8/8
f 45/21/21 46/22/22 47/23/23 48/24/24
f 52/25/25 53/26/26 54/27/27 51/28/28 50/29/29
f 57/30/30 13/6/6 12/5/5 56/31/31 55/32/32
f 62/33/33 63/34/34 60/35/35 37/36/36 38/37/37 59/38/38
f 53/26/26 62/33/33 59/38/38 27/39/39 20/40/40 21/41/41 54/27/27
f 22/13/13 64/42/42 44/43/43 7/44/44 5/45/45 6/46/46 8/47/47 9/48/48 23/14/14
f 64/42/42 52/25/25 50/29/29 49/49/49 19/10/10 18/9/9 10/50/50 11/51/51 44/43/43
f 63/34/34 46/22/22 45/21/21 28/52/52 29/53/53 33/54/54 39/55/55 60/35/35
f 65/56/56 57/30/30 55/32/32 25/57/57 26/58/58 30/59/59 34/60/60 42/61/61 61/62/62
f 47/23/23 65/56/56 61/62/62 40/63/63 41/64/64 36/17/17 35/16/16 58/65/65 48/24/24
